<?xml version="1.0" encoding="utf-8"?>
<!-- Generator: Adobe Illustrator 23.0.6, SVG Export Plug-In . SVG Version: 6.00 Build 0)  -->
<svg version="1.1" id="Capa_1" xmlns="http://www.w3.org/2000/svg" xmlns:xlink="http://www.w3.org/1999/xlink" x="0px" y="0px"
	 viewBox="0 0 500 200" style="enable-background:new 0 0 500 200;" xml:space="preserve">
<style type="text/css">
	.st0{fill:#626262;}
	.st1{fill:#E62D40;}
	.st2{fill:#FFFFFF;}
</style>
<g>
	<path d="M208.6,79.3c0,1.9-0.4,3.6-1.1,5.2c-0.7,1.6-1.7,3-2.9,4.2c-1.2,1.2-2.7,2.1-4.4,2.8c-1.7,0.7-3.4,1-5.3,1h-23.7V41.7h23.6
		c1.8,0,3.4,0.4,4.8,1.1c1.4,0.8,2.6,1.7,3.6,3c1,1.2,1.8,2.6,2.3,4.1c0.5,1.5,0.8,3.1,0.8,4.7c0,2.6-0.6,4.9-1.9,7.1
		c-1.3,2.1-3.1,3.7-5.4,4.7c2.9,0.9,5.2,2.5,6.9,4.8C207.7,73.6,208.6,76.3,208.6,79.3z M174.9,45v20.3h18.6c1.4,0,2.6-0.3,3.8-0.9
		c1.1-0.6,2.1-1.3,3-2.2c0.8-0.9,1.5-2,2-3.2c0.5-1.2,0.7-2.5,0.7-3.8c0-1.4-0.2-2.7-0.7-3.9c-0.5-1.2-1.1-2.3-1.9-3.2
		s-1.7-1.7-2.8-2.2c-1.1-0.5-2.3-0.8-3.6-0.8H174.9z M204.9,78.8c0-1.3-0.2-2.6-0.7-3.9c-0.5-1.3-1.1-2.4-2-3.4
		c-0.9-1-1.9-1.7-3-2.3c-1.2-0.6-2.4-0.9-3.7-0.9h-20.6v20.8h20.1c1.4,0,2.7-0.3,4-0.9c1.2-0.6,2.3-1.3,3.1-2.3
		c0.9-1,1.6-2.1,2.1-3.3C204.7,81.4,204.9,80.1,204.9,78.8z"/>
	<path d="M252.2,89.1v3.3h-33.8V41.7h33.1V45h-29.5v19.9h25.8v3.1h-25.8v21.1H252.2z"/>
	<path d="M290.6,50.2c-3.3-3.7-7.9-5.5-13.9-5.5c-4.9,0-8.6,0.9-10.8,2.8c-2.3,1.9-3.4,4.4-3.4,7.6c0,1.6,0.3,3,0.9,4
		c0.6,1.1,1.5,2,2.7,2.7c1.2,0.8,2.7,1.4,4.6,1.9c1.9,0.5,4.1,1.1,6.7,1.6c2.7,0.6,5.2,1.2,7.4,1.9c2.2,0.7,4.1,1.6,5.6,2.6
		c1.5,1,2.7,2.3,3.6,3.9c0.8,1.5,1.2,3.4,1.2,5.6s-0.4,4.2-1.3,5.9c-0.9,1.7-2.1,3.1-3.7,4.2c-1.6,1.1-3.5,2-5.7,2.5
		c-2.2,0.6-4.7,0.9-7.4,0.9c-7.9,0-14.6-2.5-20.1-7.6l1.9-2.9c2.1,2.2,4.8,4,7.9,5.3c3.1,1.3,6.6,2,10.4,2c4.4,0,7.9-0.8,10.4-2.4
		c2.5-1.6,3.7-4.1,3.7-7.4c0-1.7-0.3-3.1-1-4.2c-0.7-1.2-1.7-2.2-3-3c-1.3-0.9-3-1.6-5-2.2c-2-0.6-4.3-1.2-7-1.8
		c-2.7-0.6-5.1-1.2-7.2-1.8c-2.1-0.6-3.8-1.5-5.2-2.4c-1.4-1-2.5-2.2-3.2-3.5c-0.7-1.4-1.1-3.1-1.1-5.2c0-2.3,0.4-4.3,1.3-6.1
		c0.9-1.8,2.1-3.2,3.7-4.5c1.6-1.2,3.4-2.1,5.6-2.7c2.2-0.6,4.6-0.9,7.3-0.9c3.3,0,6.2,0.5,8.8,1.5c2.6,1,4.9,2.5,7,4.5L290.6,50.2z
		"/>
	<path d="M339.3,45h-18.6v47.4h-3.6V45h-18.6v-3.3h40.8V45z"/>
	<path d="M170.3,152.4v-50.7h18c4.1,0,7.7,0.7,10.7,2c3.1,1.3,5.6,3.1,7.7,5.4c2.1,2.3,3.6,5,4.7,8c1,3.1,1.6,6.3,1.6,9.8
		c0,3.9-0.6,7.3-1.7,10.5c-1.2,3.1-2.8,5.8-5,8c-2.1,2.2-4.7,3.9-7.8,5.1c-3,1.2-6.4,1.8-10.2,1.8H170.3z M204.9,127
		c0-2.7-0.4-5.1-1.1-7.4c-0.7-2.2-1.8-4.2-3.2-5.7c-1.4-1.6-3.2-2.8-5.2-3.7c-2-0.9-4.4-1.4-7-1.4h-10v36.5h10c2.7,0,5-0.5,7.1-1.4
		c2.1-0.9,3.8-2.2,5.2-3.9s2.5-3.6,3.2-5.8C204.5,132,204.9,129.6,204.9,127z"/>
	<path d="M221.4,152.4v-50.7h22.1c2.3,0,4.4,0.5,6.3,1.4c1.9,1,3.6,2.2,5,3.7c1.4,1.5,2.5,3.3,3.2,5.3s1.2,4,1.2,6
		c0,1.7-0.2,3.4-0.7,4.9c-0.5,1.6-1.1,3-2,4.4c-0.9,1.3-1.9,2.5-3.1,3.5c-1.2,1-2.6,1.7-4.1,2.2l11.9,19.3h-9.1l-11-17.6h-11.7v17.6
		H221.4z M229.4,127.7h14c1.1,0,2.2-0.2,3.1-0.8c0.9-0.5,1.7-1.2,2.4-2.1c0.7-0.9,1.2-1.9,1.6-3c0.4-1.1,0.6-2.4,0.6-3.6
		c0-1.3-0.2-2.5-0.7-3.6c-0.5-1.1-1-2.1-1.8-3c-0.7-0.9-1.6-1.5-2.6-2c-1-0.5-2-0.8-3-0.8h-13.6V127.7z"/>
	<path d="M268.6,152.4v-50.7h8v50.7H268.6z"/>
	<path d="M291.2,101.7l15.3,40.6l15.2-40.6h8.5l-20.3,50.7h-6.9l-20.3-50.7H291.2z"/>
	<path d="M371.2,145.3v7.1h-34.8v-50.7h34.1v7.1h-26.1v14.4H367v6.6h-22.6v15.5H371.2z"/>
	<path d="M379.4,152.4v-50.7h22.1c2.3,0,4.4,0.5,6.3,1.4c1.9,1,3.6,2.2,5,3.7c1.4,1.5,2.5,3.3,3.2,5.3s1.2,4,1.2,6
		c0,1.7-0.2,3.4-0.7,4.9c-0.5,1.6-1.1,3-2,4.4c-0.9,1.3-1.9,2.5-3.1,3.5c-1.2,1-2.6,1.7-4.1,2.2l11.9,19.3h-9.1l-11-17.6h-11.7v17.6
		H379.4z M387.4,127.7h14c1.1,0,2.2-0.2,3.1-0.8c0.9-0.5,1.7-1.2,2.4-2.1c0.7-0.9,1.2-1.9,1.6-3c0.4-1.1,0.6-2.4,0.6-3.6
		c0-1.3-0.2-2.5-0.7-3.6c-0.5-1.1-1-2.1-1.8-3c-0.7-0.9-1.6-1.5-2.6-2c-1-0.5-2-0.8-3-0.8h-13.6V127.7z"/>
	<path d="M456.6,113.6c-0.5-0.5-1.2-1.1-2.1-1.7c-0.9-0.6-2-1.2-3.2-1.7c-1.2-0.5-2.5-1-4-1.3c-1.5-0.3-2.9-0.5-4.5-0.5
		c-3.4,0-5.9,0.6-7.5,1.9c-1.6,1.2-2.4,3-2.4,5.1c0,1.2,0.2,2.2,0.8,3c0.5,0.8,1.3,1.5,2.3,2.1c1,0.6,2.4,1.1,3.9,1.6
		s3.4,0.9,5.5,1.5c2.6,0.6,4.9,1.3,7,2.1c2.1,0.8,3.8,1.7,5.2,2.8c1.4,1.1,2.5,2.4,3.3,4c0.8,1.6,1.2,3.5,1.2,5.8
		c0,2.6-0.5,4.8-1.5,6.6c-1,1.9-2.3,3.4-4,4.5c-1.7,1.2-3.7,2-5.9,2.6c-2.2,0.5-4.6,0.8-7.2,0.8c-3.9,0-7.6-0.6-11.2-1.7
		c-3.6-1.2-6.8-2.9-9.7-5.1l3.6-6.9c0.6,0.6,1.5,1.3,2.7,2.1c1.2,0.8,2.5,1.5,4.1,2.1c1.5,0.6,3.2,1.2,5,1.6
		c1.8,0.5,3.7,0.7,5.6,0.7c3.1,0,5.6-0.5,7.3-1.6c1.7-1.1,2.6-2.7,2.6-4.9c0-1.3-0.3-2.4-1-3.2c-0.6-0.9-1.6-1.6-2.7-2.2
		c-1.2-0.6-2.6-1.2-4.4-1.7s-3.7-1.1-5.9-1.6c-2.5-0.7-4.7-1.4-6.6-2.1c-1.9-0.7-3.4-1.6-4.7-2.7c-1.2-1-2.2-2.3-2.8-3.7
		c-0.6-1.4-1-3.1-1-5.1c0-2.5,0.5-4.7,1.4-6.6c1-1.9,2.2-3.5,3.9-4.9s3.6-2.3,5.8-3c2.2-0.7,4.7-1,7.3-1c3.4,0,6.6,0.5,9.5,1.6
		c2.9,1.1,5.4,2.5,7.6,4.1L456.6,113.6z"/>
</g>
<g>
	<path d="M109.3,102.2H64V131h45.4c6.7,0,12.2-5.5,12.2-12.2v-4.3C121.6,107.7,116.1,102.2,109.3,102.2z"/>
	<path d="M109.3,65.9H64v28.8h45.4c6.7,0,12.2-5.5,12.2-12.2v-4.3C121.6,71.4,116.1,65.9,109.3,65.9z"/>
	<path d="M117.3,41.7H35.5v114.5h81.9c18,0,32.7-14.6,32.7-32.7V74.4C150,56.4,135.4,41.7,117.3,41.7z M129.1,82.5
		c0,6.6-3.2,12.4-8.2,16c5,3.6,8.2,9.4,8.2,16v4.3c0,10.9-8.9,19.8-19.8,19.8H56.4v-36.3v-7.5V58.4h52.9c10.9,0,19.8,8.9,19.8,19.8
		V82.5z"/>
</g>
</svg>
