<?xml version="1.0" encoding="utf-8"?>
<!-- Generator: Adobe Illustrator 23.0.6, SVG Export Plug-In . SVG Version: 6.00 Build 0)  -->
<svg version="1.1" id="Capa_1" xmlns="http://www.w3.org/2000/svg" xmlns:xlink="http://www.w3.org/1999/xlink" x="0px" y="0px"
	 viewBox="0 0 427.6 114.7" style="enable-background:new 0 0 427.6 114.7;" xml:space="preserve">
<style type="text/css">
	.st0{fill:#FFFFFF;}
</style>
<g>
	<rect x="13.9" y="10.5" width="84.8" height="91.8"/>
	<g>
		<path class="st0" d="M172.8,37.8c0,1.9-0.4,3.6-1.1,5.2c-0.7,1.6-1.7,3-2.9,4.2s-2.7,2.1-4.4,2.8c-1.7,0.7-3.4,1-5.3,1h-23.7V0.2
			H159c1.8,0,3.4,0.4,4.8,1.1c1.4,0.8,2.6,1.7,3.6,3c1,1.2,1.8,2.6,2.3,4.1s0.8,3.1,0.8,4.7c0,2.6-0.6,4.9-1.9,7.1
			c-1.3,2.1-3.1,3.7-5.4,4.7c2.9,0.9,5.2,2.5,6.9,4.8C171.9,32.1,172.8,34.8,172.8,37.8z M139.1,3.5v20.3h18.6
			c1.4,0,2.6-0.3,3.8-0.9c1.1-0.6,2.1-1.3,3-2.2c0.8-0.9,1.5-2,2-3.2s0.7-2.5,0.7-3.8c0-1.4-0.2-2.7-0.7-3.9s-1.1-2.3-1.9-3.2
			s-1.7-1.7-2.8-2.2s-2.3-0.8-3.6-0.8L139.1,3.5L139.1,3.5z M169.1,37.3c0-1.3-0.2-2.6-0.7-3.9s-1.1-2.4-2-3.4s-1.9-1.7-3-2.3
			c-1.2-0.6-2.4-0.9-3.7-0.9h-20.6v20.8h20.1c1.4,0,2.7-0.3,4-0.9c1.2-0.6,2.3-1.3,3.1-2.3c0.9-1,1.6-2.1,2.1-3.3
			C168.9,39.9,169.1,38.6,169.1,37.3z"/>
		<path class="st0" d="M216.4,47.6v3.3h-33.8V0.2h33.1v3.3h-29.5v19.9H212v3.1h-25.8v21.1H216.4z"/>
		<path class="st0" d="M254.8,8.7c-3.3-3.7-7.9-5.5-13.9-5.5c-4.9,0-8.6,0.9-10.8,2.8c-2.3,1.9-3.4,4.4-3.4,7.6c0,1.6,0.3,3,0.9,4
			c0.6,1.1,1.5,2,2.7,2.7c1.2,0.8,2.7,1.4,4.6,1.9c1.9,0.5,4.1,1.1,6.7,1.6c2.7,0.6,5.2,1.2,7.4,1.9c2.2,0.7,4.1,1.6,5.6,2.6
			s2.7,2.3,3.6,3.9c0.8,1.5,1.2,3.4,1.2,5.6s-0.4,4.2-1.3,5.9c-0.9,1.7-2.1,3.1-3.7,4.2s-3.5,2-5.7,2.5c-2.2,0.6-4.7,0.9-7.4,0.9
			c-7.9,0-14.6-2.5-20.1-7.6l1.9-2.9c2.1,2.2,4.8,4,7.9,5.3s6.6,2,10.4,2c4.4,0,7.9-0.8,10.4-2.4s3.7-4.1,3.7-7.4
			c0-1.7-0.3-3.1-1-4.2c-0.7-1.2-1.7-2.2-3-3c-1.3-0.9-3-1.6-5-2.2s-4.3-1.2-7-1.8c-2.7-0.6-5.1-1.2-7.2-1.8
			c-2.1-0.6-3.8-1.5-5.2-2.4c-1.4-1-2.5-2.2-3.2-3.5c-0.7-1.4-1.1-3.1-1.1-5.2c0-2.3,0.4-4.3,1.3-6.1s2.1-3.2,3.7-4.5
			c1.6-1.2,3.4-2.1,5.6-2.7c2.2-0.6,4.6-0.9,7.3-0.9c3.3,0,6.2,0.5,8.8,1.5c2.6,1,4.9,2.5,7,4.5L254.8,8.7z"/>
		<path class="st0" d="M303.5,3.5h-18.6v47.4h-3.6V3.5h-18.6V0.2h40.8L303.5,3.5L303.5,3.5z"/>
		<path class="st0" d="M134.5,110.9V60.2h18c4.1,0,7.7,0.7,10.7,2c3.1,1.3,5.6,3.1,7.7,5.4c2.1,2.3,3.6,5,4.7,8
			c1,3.1,1.6,6.3,1.6,9.8c0,3.9-0.6,7.3-1.7,10.5c-1.2,3.1-2.8,5.8-5,8c-2.1,2.2-4.7,3.9-7.8,5.1c-3,1.2-6.4,1.8-10.2,1.8
			L134.5,110.9L134.5,110.9z M169.1,85.5c0-2.7-0.4-5.1-1.1-7.4c-0.7-2.2-1.8-4.2-3.2-5.7c-1.4-1.6-3.2-2.8-5.2-3.7
			c-2-0.9-4.4-1.4-7-1.4h-10v36.5h10c2.7,0,5-0.5,7.1-1.4s3.8-2.2,5.2-3.9s2.5-3.6,3.2-5.8C168.7,90.5,169.1,88.1,169.1,85.5z"/>
		<path class="st0" d="M185.6,110.9V60.2h22.1c2.3,0,4.4,0.5,6.3,1.4c1.9,1,3.6,2.2,5,3.7c1.4,1.5,2.5,3.3,3.2,5.3s1.2,4,1.2,6
			c0,1.7-0.2,3.4-0.7,4.9c-0.5,1.6-1.1,3-2,4.4c-0.9,1.3-1.9,2.5-3.1,3.5c-1.2,1-2.6,1.7-4.1,2.2l11.9,19.3h-9.1l-11-17.6h-11.7
			v17.6H185.6z M193.6,86.2h14c1.1,0,2.2-0.2,3.1-0.8c0.9-0.5,1.7-1.2,2.4-2.1s1.2-1.9,1.6-3c0.4-1.1,0.6-2.4,0.6-3.6
			c0-1.3-0.2-2.5-0.7-3.6s-1-2.1-1.8-3c-0.7-0.9-1.6-1.5-2.6-2s-2-0.8-3-0.8h-13.6V86.2z"/>
		<path class="st0" d="M232.8,110.9V60.2h8v50.7H232.8z"/>
		<path class="st0" d="M255.4,60.2l15.3,40.6l15.2-40.6h8.5l-20.3,50.7h-6.9l-20.3-50.7H255.4z"/>
		<path class="st0" d="M335.4,103.8v7.1h-34.8V60.2h34.1v7.1h-26.1v14.4h22.6v6.6h-22.6v15.5L335.4,103.8L335.4,103.8z"/>
		<path class="st0" d="M343.6,110.9V60.2h22.1c2.3,0,4.4,0.5,6.3,1.4c1.9,1,3.6,2.2,5,3.7s2.5,3.3,3.2,5.3s1.2,4,1.2,6
			c0,1.7-0.2,3.4-0.7,4.9c-0.5,1.6-1.1,3-2,4.4c-0.9,1.3-1.9,2.5-3.1,3.5s-2.6,1.7-4.1,2.2l11.9,19.3h-9.1l-11-17.6h-11.7v17.6
			H343.6z M351.6,86.2h14c1.1,0,2.2-0.2,3.1-0.8c0.9-0.5,1.7-1.2,2.4-2.1c0.7-0.9,1.2-1.9,1.6-3s0.6-2.4,0.6-3.6
			c0-1.3-0.2-2.5-0.7-3.6s-1-2.1-1.8-3c-0.7-0.9-1.6-1.5-2.6-2s-2-0.8-3-0.8h-13.6V86.2z"/>
		<path class="st0" d="M420.8,72.1c-0.5-0.5-1.2-1.1-2.1-1.7s-2-1.2-3.2-1.7s-2.5-1-4-1.3s-2.9-0.5-4.5-0.5c-3.4,0-5.9,0.6-7.5,1.9
			c-1.6,1.2-2.4,3-2.4,5.1c0,1.2,0.2,2.2,0.8,3c0.5,0.8,1.3,1.5,2.3,2.1s2.4,1.1,3.9,1.6s3.4,0.9,5.5,1.5c2.6,0.6,4.9,1.3,7,2.1
			c2.1,0.8,3.8,1.7,5.2,2.8c1.4,1.1,2.5,2.4,3.3,4s1.2,3.5,1.2,5.8c0,2.6-0.5,4.8-1.5,6.6c-1,1.9-2.3,3.4-4,4.5
			c-1.7,1.2-3.7,2-5.9,2.6c-2.2,0.5-4.6,0.8-7.2,0.8c-3.9,0-7.6-0.6-11.2-1.7c-3.6-1.2-6.8-2.9-9.7-5.1l3.6-6.9
			c0.6,0.6,1.5,1.3,2.7,2.1s2.5,1.5,4.1,2.1c1.5,0.6,3.2,1.2,5,1.6c1.8,0.5,3.7,0.7,5.6,0.7c3.1,0,5.6-0.5,7.3-1.6
			c1.7-1.1,2.6-2.7,2.6-4.9c0-1.3-0.3-2.4-1-3.2c-0.6-0.9-1.6-1.6-2.7-2.2c-1.2-0.6-2.6-1.2-4.4-1.7s-3.7-1.1-5.9-1.6
			c-2.5-0.7-4.7-1.4-6.6-2.1c-1.9-0.7-3.4-1.6-4.7-2.7c-1.2-1-2.2-2.3-2.8-3.7c-0.6-1.4-1-3.1-1-5.1c0-2.5,0.5-4.7,1.4-6.6
			c1-1.9,2.2-3.5,3.9-4.9s3.6-2.3,5.8-3c2.2-0.7,4.7-1,7.3-1c3.4,0,6.6,0.5,9.5,1.6s5.4,2.5,7.6,4.1L420.8,72.1z"/>
	</g>
	<g>
		<path class="st0" d="M73.5,60.7H28.2v28.8h45.4c6.7,0,12.2-5.5,12.2-12.2V73C85.8,66.2,80.3,60.7,73.5,60.7z"/>
		<path class="st0" d="M73.5,24.4H28.2v28.8h45.4c6.7,0,12.2-5.5,12.2-12.2v-4.3C85.8,29.9,80.3,24.4,73.5,24.4z"/>
		<path class="st0" d="M81.5,0.2H-0.3v114.5h81.9c18,0,32.7-14.6,32.7-32.7V32.9C114.2,14.9,99.6,0.2,81.5,0.2z M93.3,41
			c0,6.6-3.2,12.4-8.2,16c5,3.6,8.2,9.4,8.2,16v4.3c0,10.9-8.9,19.8-19.8,19.8H20.6V60.8v-7.5V16.9h52.9c10.9,0,19.8,8.9,19.8,19.8
			V41z"/>
	</g>
</g>
</svg>
